<svg width="17" height="17" viewBox="0 0 17 17" fill="none" xmlns="http://www.w3.org/2000/svg">
<mask id="mask0_4367_2635" style="mask-type:alpha" maskUnits="userSpaceOnUse" x="0" y="0" width="17" height="17">
<rect x="0.927734" y="0.276367" width="16" height="16" fill="#D9D9D9"/>
</mask>
<g mask="url(#mask0_4367_2635)">
<path d="M8.92708 13.6098C8.56042 13.6098 8.24653 13.4792 7.98542 13.2181C7.72431 12.957 7.59375 12.6431 7.59375 12.2764C7.59375 11.9098 7.72431 11.5959 7.98542 11.3348C8.24653 11.0737 8.56042 10.9431 8.92708 10.9431C9.29375 10.9431 9.60764 11.0737 9.86875 11.3348C10.1299 11.5959 10.2604 11.9098 10.2604 12.2764C10.2604 12.6431 10.1299 12.957 9.86875 13.2181C9.60764 13.4792 9.29375 13.6098 8.92708 13.6098ZM8.92708 9.60978C8.56042 9.60978 8.24653 9.47923 7.98542 9.21812C7.72431 8.957 7.59375 8.64312 7.59375 8.27645C7.59375 7.90978 7.72431 7.59589 7.98542 7.33478C8.24653 7.07367 8.56042 6.94312 8.92708 6.94312C9.29375 6.94312 9.60764 7.07367 9.86875 7.33478C10.1299 7.59589 10.2604 7.90978 10.2604 8.27645C10.2604 8.64312 10.1299 8.957 9.86875 9.21812C9.60764 9.47923 9.29375 9.60978 8.92708 9.60978ZM8.92708 5.60978C8.56042 5.60978 8.24653 5.47923 7.98542 5.21812C7.72431 4.957 7.59375 4.64312 7.59375 4.27645C7.59375 3.90978 7.72431 3.59589 7.98542 3.33478C8.24653 3.07367 8.56042 2.94312 8.92708 2.94312C9.29375 2.94312 9.60764 3.07367 9.86875 3.33478C10.1299 3.59589 10.2604 3.90978 10.2604 4.27645C10.2604 4.64312 10.1299 4.957 9.86875 5.21812C9.60764 5.47923 9.29375 5.60978 8.92708 5.60978Z" fill="#1C1B1F"/>
</g>
</svg>
